<svg width="24" height="35" viewBox="0 0 24 35" fill="none" xmlns="http://www.w3.org/2000/svg">
<circle cx="11.7112" cy="12.4668" r="3.65188" fill="white"/>
<path d="M22.4224 12.4762C22.4224 13.9723 21.7701 16.0688 20.6817 18.4713C19.6083 20.8406 18.1686 23.3857 16.716 25.7374C15.2655 28.0858 13.8133 30.2234 12.7229 31.7749C12.3336 32.3288 11.9908 32.8075 11.7112 33.1937C11.4316 32.8075 11.0888 32.3288 10.6995 31.7749C9.60909 30.2234 8.15691 28.0858 6.7064 25.7374C5.25382 23.3857 3.81412 20.8406 2.74076 18.4713C1.65234 16.0688 1 13.9723 1 12.4762C1 6.07751 5.85424 1 11.7112 1C17.5682 1 22.4224 6.07751 22.4224 12.4762Z" stroke="white" stroke-width="2"/>
</svg>
