<svg width="33" height="32" viewBox="0 0 33 32" fill="none" xmlns="http://www.w3.org/2000/svg">
<path d="M24.7175 5.59822C24.3399 5.59822 23.9708 5.71019 23.6569 5.91997C23.3429 6.12975 23.0982 6.42792 22.9537 6.77677C22.8092 7.12562 22.7714 7.50948 22.8451 7.87982C22.9187 8.25016 23.1006 8.59034 23.3676 8.85734C23.6346 9.12434 23.9747 9.30617 24.3451 9.37983C24.7154 9.4535 25.0993 9.41569 25.4481 9.27119C25.797 9.12669 26.0952 8.88199 26.3049 8.56803C26.5147 8.25408 26.6267 7.88496 26.6267 7.50737C26.6267 7.00103 26.4255 6.51543 26.0675 6.15739C25.7095 5.79936 25.2239 5.59822 24.7175 5.59822ZM32.0359 9.44833C32.005 8.12831 31.7578 6.82231 31.3041 5.58231C30.8996 4.52135 30.27 3.56064 29.4586 2.76631C28.6708 1.95083 27.7078 1.32519 26.6426 0.936713C25.4059 0.469228 24.0984 0.216344 22.7766 0.188963C21.0902 0.0935058 20.5492 0.0935059 16.2218 0.0935059C11.8944 0.0935059 11.3535 0.0935058 9.66708 0.188963C8.34524 0.216344 7.03778 0.469228 5.80106 0.936713C4.73778 1.32912 3.77566 1.95423 2.98506 2.76631C2.16958 3.55412 1.54394 4.51707 1.15546 5.58231C0.687978 6.81903 0.435094 8.12649 0.407713 9.44833C0.312256 11.1347 0.312256 11.6757 0.312256 16.0031C0.312256 20.3305 0.312256 20.8714 0.407713 22.5578C0.435094 23.8797 0.687978 25.1871 1.15546 26.4238C1.54394 27.4891 2.16958 28.452 2.98506 29.2398C3.77566 30.0519 4.73778 30.677 5.80106 31.0694C7.03778 31.5369 8.34524 31.7898 9.66708 31.8172C11.3535 31.9127 11.8944 31.9127 16.2218 31.9127C20.5492 31.9127 21.0902 31.9127 22.7766 31.8172C24.0984 31.7898 25.4059 31.5369 26.6426 31.0694C27.7078 30.681 28.6708 30.0553 29.4586 29.2398C30.2735 28.4485 30.9037 27.4869 31.3041 26.4238C31.7578 25.1839 32.005 23.8778 32.0359 22.5578C32.0359 20.8714 32.1314 20.3305 32.1314 16.0031C32.1314 11.6757 32.1314 11.1347 32.0359 9.44833ZM29.1722 22.3669C29.1606 23.3768 28.9777 24.3774 28.6313 25.3261C28.3773 26.0185 27.9693 26.6441 27.4381 27.1557C26.922 27.6815 26.2977 28.0887 25.6085 28.3489C24.6598 28.6953 23.6592 28.8783 22.6493 28.8898C21.0583 28.9694 20.4697 28.9853 16.2855 28.9853C12.1012 28.9853 11.5126 28.9853 9.92164 28.8898C8.87302 28.9095 7.82888 28.748 6.83518 28.4125C6.17618 28.139 5.58048 27.7329 5.08513 27.2193C4.55707 26.7082 4.15417 26.0821 3.90782 25.3897C3.5194 24.4274 3.30396 23.4041 3.27144 22.3669C3.27144 20.776 3.17598 20.1873 3.17598 16.0031C3.17598 11.8189 3.17598 11.2302 3.27144 9.63925C3.27857 8.60681 3.46704 7.58365 3.82827 6.61643C4.10835 5.94491 4.53826 5.3463 5.08513 4.86638C5.56848 4.31936 6.16585 3.88491 6.83518 3.59361C7.80495 3.24367 8.82705 3.06077 9.858 3.05269C11.449 3.05269 12.0376 2.95723 16.2218 2.95723C20.406 2.95723 20.9947 2.95723 22.5857 3.05269C23.5956 3.06427 24.5962 3.24718 25.5448 3.59361C26.2678 3.86193 26.9167 4.29816 27.4381 4.86638C27.9594 5.35509 28.3668 5.95258 28.6313 6.61643C28.9849 7.58522 29.1679 8.60796 29.1722 9.63925C29.2518 11.2302 29.2677 11.8189 29.2677 16.0031C29.2677 20.1873 29.2518 20.776 29.1722 22.3669ZM16.2218 7.84147C14.6083 7.84461 13.0319 8.32596 11.6918 9.22468C10.3517 10.1234 9.30813 11.3992 8.69284 12.8908C8.07754 14.3824 7.91818 16.0229 8.2349 17.6051C8.55161 19.1872 9.33018 20.64 10.4722 21.7798C11.6143 22.9196 13.0686 23.6954 14.6513 24.009C16.2341 24.3226 17.8743 24.1601 19.3647 23.5419C20.8551 22.9237 22.1289 21.8776 23.025 20.5358C23.9211 19.1939 24.3993 17.6166 24.3993 16.0031C24.4015 14.9293 24.1913 13.8658 23.7808 12.8736C23.3704 11.8814 22.7679 10.9801 22.0079 10.2216C21.248 9.46312 20.3455 8.86235 19.3525 8.45387C18.3595 8.0454 17.2956 7.83727 16.2218 7.84147ZM16.2218 21.301C15.174 21.301 14.1497 20.9903 13.2785 20.4081C12.4072 19.826 11.7282 18.9986 11.3272 18.0305C10.9262 17.0624 10.8213 15.9972 11.0257 14.9695C11.2302 13.9418 11.7347 12.9978 12.4757 12.2569C13.2166 11.516 14.1606 11.0114 15.1883 10.807C16.216 10.6026 17.2812 10.7075 18.2492 11.1085C19.2173 11.5095 20.0447 12.1885 20.6269 13.0597C21.209 13.931 21.5197 14.9553 21.5197 16.0031C21.5197 16.6988 21.3827 17.3877 21.1164 18.0305C20.8502 18.6733 20.46 19.2573 19.968 19.7493C19.476 20.2412 18.892 20.6314 18.2492 20.8977C17.6065 21.1639 16.9176 21.301 16.2218 21.301Z" fill="white"/>
</svg>
