<svg width="96" height="122" viewBox="0 0 96 122" fill="none" xmlns="http://www.w3.org/2000/svg">
<path d="M48.009 60.0047C51.0364 60.0047 53.6251 58.9252 55.7751 56.7664C57.9251 54.6075 59.0001 52.0123 59.0001 48.9807C59.0001 45.9491 57.9221 43.3568 55.7662 41.2039C53.6103 39.0509 51.0187 37.9744 47.9913 37.9744C44.9639 37.9744 42.3752 39.0539 40.2252 41.2127C38.0752 43.3716 37.0002 45.9668 37.0002 48.9984C37.0002 52.03 38.0781 54.6223 40.234 56.7752C42.3899 58.9282 44.9816 60.0047 48.009 60.0047ZM48.0001 107.871C60.9335 96.0544 70.5002 85.3313 76.7002 75.7014C82.9002 66.0715 86.0002 57.5681 86.0002 50.1912C86.0002 38.6894 82.3322 29.2715 74.9961 21.9377C67.6599 14.6039 58.6612 10.937 48.0001 10.937C37.339 10.937 28.3404 14.6039 21.0042 21.9377C13.6681 29.2715 10 38.6894 10 50.1912C10 57.5681 13.15 66.0715 19.45 75.7014C25.7501 85.3313 35.2668 96.0544 48.0001 107.871ZM48.0001 121.089C31.9001 107.37 19.8751 94.6274 11.9251 82.8612C3.97512 71.095 0.00012207 60.205 0.00012207 50.1912C0.00012207 35.1705 4.82512 23.204 14.4751 14.2918C24.1251 5.37948 35.3001 0.92334 48.0001 0.92334C60.7001 0.92334 71.8751 5.37948 81.5251 14.2918C91.1751 23.204 96.0001 35.1705 96.0001 50.1912C96.0001 60.205 92.0251 71.095 84.0751 82.8612C76.1251 94.6274 64.1001 107.37 48.0001 121.089Z" fill="white"/>
</svg>
