<?xml version="1.0" encoding="UTF-8"?>
<!DOCTYPE svg PUBLIC "-//W3C//DTD SVG 1.1//EN" "http://www.w3.org/Graphics/SVG/1.1/DTD/svg11.dtd">
<!-- Creator: CorelDRAW -->
<svg xmlns="http://www.w3.org/2000/svg" xml:space="preserve" width="25.4mm" height="25.4mm" version="1.1" style="shape-rendering:geometricPrecision; text-rendering:geometricPrecision; image-rendering:optimizeQuality; fill-rule:evenodd; clip-rule:evenodd"
viewBox="0 0 2540 2540"
 xmlns:xlink="http://www.w3.org/1999/xlink"
 xmlns:xodm="http://www.corel.com/coreldraw/odm/2003">
 <defs>
  <style type="text/css">
   <![CDATA[
    .fil0 {fill:black}
    .fil1 {fill:#DB020B}
    .fil3 {fill:#DB020B}
    .fil2 {fill:white}
    .fil4 {fill:black;fill-rule:nonzero}
    .fil5 {fill:#DB020B;fill-rule:nonzero}
   ]]>
  </style>
 </defs>
 <g id="Слой_x0020_1">
  <metadata id="CorelCorpID_0Corel-Layer"/>
  <g id="_2804694309312">
   <polygon class="fil0" points="553.91,1204.53 444.72,1204.53 440.49,1218.41 553.91,1218.41 "/>
   <rect class="fil0" x="435.93" y="1232.09" width="115.09" height="4.56"/>
   <polygon class="fil0" points="435.93,1245.77 563.57,1245.77 563.57,1287.26 441.45,1287.26 "/>
   <path class="fil1" d="M481.51 1099.89c83.43,0 76.58,50.93 71.25,119.24 -4.15,52.94 -17.95,109.54 -62.13,136.04l-72.93 27.35 -72.94 4.56 -45.59 4.56 -9.11 9.12c70.19,58.5 89.23,68.32 158.69,63.46 112.69,-7.85 185.06,-67.55 228.21,-171.41 24.45,-58.78 33.9,-127.61 13.2,-187.63 -19.99,-57.99 -73.66,-95.37 -133.33,-103.38 -61.55,-8.26 -120.39,0.85 -171.04,38.83l54.7 9.12 18.23 31.91 22.79 18.23z"/>

   <path class="fil0" d="M495.19 1191.06l-41.03 0c-6.37,-19.12 -18.84,-18.86 -23.25,3.26 -4.76,23.95 -5.26,57.86 -3.11,82.47 3.65,41.74 26.36,30.32 26.36,23.68l41.03 0c-3.94,39.42 -6.47,130.2 -54.44,144.46 -17.15,5.11 -32.15,-24.36 -42.95,-55 -30.12,-85.46 -31.52,-208.18 1.66,-299.15 13.05,-35.8 25.05,-49.59 36.71,-48.99 43.8,2.27 59.02,114.25 59.02,149.27z"/>
   <path class="fil0" d="M416.63 1041.91c-8.68,9.12 -16.81,21.93 -24,37.71l-58.55 0c8.06,-16.18 17.27,-28.79 27.12,-37.71l55.43 0zm-34.59 65.16c-1.22,3.74 -2.39,7.58 -3.51,11.53l-59.42 0c1.17,-3.97 2.38,-7.81 3.65,-11.53l59.28 0zm-5.63 19.31c-8.69,33.42 -13.92,73.18 -13.92,116.07 0,91.41 23.23,172.59 55.63,201.94l2.25 0.89 -63.85 -0.89c-31.17,-33.88 -53.28,-116.8 -53.28,-198.2 0,-47.38 5.13,-87.41 13.7,-119.81l59.47 0z"/>
   <path class="fil0" d="M312.79 1091.54c-3.07,7.22 -5.9,15.48 -8.48,24.6l-47.43 0c3.67,-9.31 7.71,-17.58 12.06,-24.6l43.85 0zm-14.07 47.9c-0.43,2.14 -0.85,4.31 -1.26,6.52l-50.1 0c0.57,-2.21 1.15,-4.38 1.75,-6.52l49.61 0zm-2.36 12.73c-4.64,27.32 -7.29,58.98 -7.29,92.73 0,63.82 9.47,120.16 23.93,153.87l-51.09 0c-16.31,-34.21 -26.8,-87.4 -26.8,-147.13 0,-36.56 3.93,-70.67 10.72,-99.47l50.53 0z"/>
   <path class="fil0" d="M241.26 1130.73c-2.03,5.63 -3.92,11.89 -5.64,18.69l-32.23 0c2.16,-6.76 4.52,-13.02 7.08,-18.69l30.79 0zm-11.4 47.55c-0.35,2.25 -0.68,4.55 -0.99,6.87l-34.02 0c0.4,-2.32 0.82,-4.62 1.26,-6.87l33.75 0zm-1.85 13.46c-2.24,18.61 -3.47,39.11 -3.47,60.65 0,40.35 4.35,77.06 11.48,104.52l-30.53 0c-9.85,-27.7 -15.91,-65.37 -15.91,-106.88 0,-20.63 1.5,-40.31 4.21,-58.29l34.22 0z"/>
   <path class="fil0" d="M182.44 1203.64c-1.81,4.21 -3.37,9.17 -4.61,14.72l-31.33 0c2.19,-5.55 4.9,-10.51 8.05,-14.72l27.89 0zm-6.61 26.03c-0.35,2.65 -0.63,5.38 -0.85,8.18l-33.44 0c0.37,-2.8 0.87,-5.53 1.48,-8.18l32.81 0zm-1.2 14.3c-0.09,2.19 -0.13,4.41 -0.13,6.66 0,12.72 1.4,24.54 3.82,34.36l-30.96 0c-4.21,-9.82 -6.67,-21.64 -6.67,-34.36 0,-2.25 0.08,-4.47 0.23,-6.66l33.71 0z"/>
   <g>
    <path class="fil3" d="M2031.2 1211.86l61.24 0 4.28 13.88 -66.42 0c0.43,-4.69 0.73,-9.32 0.9,-13.88z"/>
    <polygon class="fil3" points="2101.32,1239.41 2028.7,1239.41 2028.02,1243.97 2101.32,1243.97 "/>
    <path class="fil3" d="M2101.32 1253.09l-74.9 0c-2.73,14.22 -6.45,27.67 -10.93,40.03l0 1.46 80.26 0 5.57 -41.49z"/>
    <path class="fil3" d="M2041.5 1198.39l41.41 0c6.43,-19.13 19.01,-18.86 23.46,3.25 4.82,23.95 5.32,57.87 3.15,82.47 -3.69,41.74 -26.61,30.32 -26.61,23.68l-41.41 0c3.98,39.42 6.54,130.2 54.95,144.47 17.31,5.11 32.45,-24.37 43.35,-55.01 30.4,-85.46 31.81,-208.17 -1.68,-299.15 -13.17,-35.8 -25.28,-49.59 -37.05,-48.98 -44.21,2.26 -59.57,114.24 -59.57,149.27z"/>
    <path class="fil3" d="M2120.8 1049.24c8.76,9.12 16.96,21.93 24.22,37.7l59.09 0c-8.13,-16.18 -17.42,-28.79 -27.36,-37.7l-55.95 0zm34.91 65.15c1.23,3.74 2.41,7.58 3.54,11.53l59.97 0c-1.17,-3.97 -2.4,-7.81 -3.68,-11.53l-59.83 0zm5.68 19.31c8.77,33.42 14.05,73.18 14.05,116.07 0,91.41 -23.44,172.59 -56.15,201.94l-2.27 0.89 64.45 -0.89c31.45,-33.88 53.78,-116.79 53.78,-198.2 0,-47.38 -5.18,-87.41 -13.84,-119.81l-60.02 0z"/>
    <path class="fil3" d="M2225.6 1098.86c3.1,7.23 5.96,15.48 8.56,24.61l47.88 0c-3.71,-9.32 -7.79,-17.58 -12.19,-24.61l-44.25 0zm14.2 47.9c0.44,2.14 0.86,4.32 1.28,6.52l50.56 0c-0.57,-2.21 -1.15,-4.38 -1.76,-6.52l-50.08 0zm2.4 12.73c4.68,27.33 7.35,58.98 7.35,92.73 0,63.82 -9.57,120.16 -24.16,153.87l51.57 0c16.46,-34.21 27.05,-87.4 27.05,-147.13 0,-36.56 -3.97,-70.67 -10.82,-99.47l-50.99 0z"/>
    <path class="fil3" d="M2297.8 1138.06c2.05,5.62 3.96,11.88 5.69,18.69l32.54 0c-2.18,-6.77 -4.57,-13.03 -7.15,-18.69l-31.08 0zm11.5 47.54c0.36,2.25 0.69,4.55 1.02,6.87l34.32 0c-0.4,-2.32 -0.82,-4.62 -1.27,-6.87l-34.07 0zm1.87 13.46c2.26,18.62 3.51,39.11 3.51,60.66 0,40.34 -4.4,77.05 -11.59,104.51l30.81 0c9.95,-27.7 16.07,-65.37 16.07,-106.88 0,-20.63 -1.52,-40.31 -4.26,-58.29l-34.54 0z"/>
    <path class="fil3" d="M2357.17 1210.96c1.82,4.21 3.4,9.17 4.66,14.72l31.61 0c-2.2,-5.55 -4.95,-10.51 -8.12,-14.72l-28.15 0zm6.67 26.04c0.35,2.64 0.64,5.37 0.86,8.17l33.76 0c-0.38,-2.8 -0.89,-5.53 -1.5,-8.17l-33.12 0zm1.22 14.3c0.08,2.18 0.13,4.41 0.13,6.66 0,12.71 -1.42,24.53 -3.86,34.36l31.24 0c4.26,-9.83 6.74,-21.65 6.74,-34.36 0,-2.25 -0.08,-4.48 -0.23,-6.66l-34.02 0z"/>
   </g>
   <polygon class="fil3" points="692.64,1389.39 734.97,1162.06 894.48,1162.06 887.48,1212.54 788.16,1213.08 781.65,1253.78 855.46,1256.5 848.4,1301.55 774.59,1302.08 757.86,1389.39 "/>
   <polygon class="fil3" points="921.67,1162.06 1089.98,1162.06 1080.19,1212.36 977.88,1212.36 972.51,1250.56 1054.93,1249.93 1045.14,1298.88 966.19,1297.93 960.2,1336.77 1058.9,1338.5 1050.51,1389.39 882.52,1389.39 "/>
   <polygon class="fil3" points="1124.44,1162.06 1083.8,1389.39 1146.18,1389.39 1153.74,1337.37 1185.87,1303.34 1213.28,1389.39 1285.58,1389.39 1238.33,1245.7 1312.04,1162.06 1253.44,1162.06 1172.64,1256.09 1184.46,1162.06 "/>
   <polygon class="fil0" points="1520.23,1162.06 1480.02,1389.39 1547.41,1389.39 1587.08,1162.06 "/>
   <polygon class="fil0" points="1608.27,1162.06 1645.22,1389.39 1714.24,1389.39 1827.28,1162.06 1769.13,1162.06 1701.2,1310.66 1678.38,1162.06 "/>
   <polygon class="fil0" points="1848.87,1162.06 2017.18,1162.06 2007.39,1212.36 1905.08,1212.36 1899.71,1250.56 1982.13,1249.93 1972.34,1298.88 1893.39,1297.93 1887.39,1336.77 1986.1,1338.5 1977.71,1389.39 1809.71,1389.39 "/>
   <path class="fil0" d="M1341.5 1331.42l149.75 -108.3c-43.27,48.75 -46.12,48.69 -68.98,106.86l-10.72 59.41 -82.56 0 12.51 -57.97z"/>
   <path class="fil0" d="M1319.34 1328.91l131.17 -98.28 22.52 -100.08 102.58 0 13.22 -59.59 -121.88 0c-12.49,0 -23.23,2.46 -14.53,-15.4 9.61,-19.74 42.2,-45.69 50.28,-54.04l-178.68 129.03 70.48 0 -33.34 132.34c-8.03,31.88 -21.41,42.37 -41.82,66.02z"/>
   <path class="fil0" d="M1311.87 1070.96l70.86 0c-41.11,30.47 -80.78,64.44 -125.58,89.27 30.17,-36.66 39.07,-44.55 54.72,-89.27z"/>
   <polygon class="fil4" points="871.03,1419.56 867.11,1436.55 825.27,1436.55 821.57,1452.56 860.44,1452.56 856.48,1469.55 817.65,1469.55 812.46,1492.09 854.16,1492.09 850.33,1509.08 785.45,1509.08 806.12,1419.56 "/>
   <path id="_1" class="fil4" d="M952.6 1441.6l16.7 0 -3.3 14.28 -15.99 0 -12.27 53.2 -21.65 0 12.27 -53.2 -24.24 0 -12.37 53.2 -21.66 0 12.28 -53.2 -9.26 0 3.31 -14.28 9.25 0 0.43 -1.87c1.79,-8.04 5.15,-14.2 10.04,-18.45 4.88,-4.27 12.29,-6.4 22.25,-6.4 5.89,0 11,0.41 15.33,1.21l-3.55 15.31 -1.63 0 -2.83 -0.78c-1.97,-0.47 -3.79,-0.72 -5.52,-0.72 -3.9,0 -6.87,0.78 -8.93,2.32 -2.07,1.56 -3.59,4.49 -4.55,8.85l-0.1 0.53 25.05 0 0.44 -1.87c1.8,-8.04 5.15,-14.2 10.03,-18.45 4.89,-4.27 12.32,-6.4 22.25,-6.4 5.89,0 11,0.41 15.33,1.21l-3.55 15.31 -1.62 0 -2.83 -0.78c-1.95,-0.47 -3.8,-0.72 -5.53,-0.72 -3.9,0 -6.87,0.78 -8.92,2.32 -2.08,1.56 -3.57,4.49 -4.54,8.85l-0.12 0.53z"/>
   <path id="_2" class="fil4" d="M1024.76 1466.72c0.12,-0.72 0.22,-1.38 0.28,-1.99 0.07,-0.6 0.09,-1.21 0.09,-1.87 0,-3.16 -0.99,-5.6 -2.98,-7.28 -1.97,-1.69 -4.82,-2.53 -8.54,-2.53 -4.49,0 -8.27,1.21 -11.31,3.61 -3.05,2.4 -5.37,5.77 -6.95,10.06l29.41 0zm-16.61 44.21c-11.53,0 -20.42,-2.55 -26.7,-7.64 -6.26,-5.09 -9.4,-12.13 -9.4,-21.1 0,-6.13 1.03,-11.76 3.08,-16.89 2.03,-5.13 4.99,-9.64 8.85,-13.52 3.69,-3.78 8.31,-6.75 13.85,-8.97 5.54,-2.2 11.62,-3.3 18.25,-3.3 10.07,0 17.67,2.03 22.8,6.11 5.11,4.07 7.67,10.08 7.67,18.02 0,2.73 -0.26,5.4 -0.82,8.01 -0.53,2.6 -1.25,5.19 -2.13,7.75l-50.37 0c0,0.25 0,0.48 0,0.68 0,0.23 0,0.45 0,0.7 0,4.66 1.67,8.31 4.97,10.94 3.3,2.62 8.35,3.94 15.17,3.94 4.76,0 9.25,-0.8 13.52,-2.4 4.25,-1.6 7.94,-3.39 11.08,-5.36l2.43 0 -4.05 17.42c-4.2,1.85 -8.66,3.25 -13.32,4.19 -4.66,0.95 -9.62,1.42 -14.88,1.42z"/>
   <path id="_3" class="fil4" d="M1086.61 1510.93c-4.6,0 -8.93,-0.58 -12.95,-1.71 -4.02,-1.15 -7.53,-2.93 -10.53,-5.33 -2.93,-2.36 -5.21,-5.32 -6.85,-8.89 -1.65,-3.57 -2.47,-7.7 -2.47,-12.4 0,-6.03 1.15,-11.65 3.45,-16.84 2.3,-5.2 5.54,-9.73 9.71,-13.63 4.08,-3.8 9.07,-6.82 14.94,-9.03 5.89,-2.24 12.25,-3.35 19.11,-3.35 4.12,0 8.21,0.45 12.27,1.38 4.06,0.92 7.84,2.28 11.33,4.04l-4.56 18.47 -3.08 0c-2.36,-2.87 -5.02,-5.01 -8,-6.4 -2.98,-1.4 -6.34,-2.1 -10.06,-2.1 -6.81,0 -12.27,2.43 -16.39,7.27 -4.13,4.84 -6.18,10.88 -6.18,18.12 0,5.01 1.27,8.77 3.81,11.27 2.55,2.48 6.49,3.73 11.87,3.73 4.16,0 7.94,-0.86 11.37,-2.56 3.42,-1.7 6.36,-3.59 8.8,-5.69l3.06 0 -4.56 18.43c-4.33,1.87 -8.12,3.21 -11.39,4.01 -3.26,0.8 -7.49,1.21 -12.7,1.21z"/>
   <path id="_4" class="fil4" d="M1150.25 1510.43c-7.51,0 -12.88,-1.23 -16.09,-3.69 -3.22,-2.46 -4.82,-6.12 -4.82,-10.96 0,-1.29 0.1,-2.52 0.31,-3.73 0.18,-1.19 0.45,-2.61 0.78,-4.21l7.39 -31.96 -8.95 0 3.3 -14.28 8.93 0 4.48 -19.33 21.79 0 -4.47 19.33 20.25 0 -3.3 14.28 -20.26 0 -5.68 24.39c-0.41,1.68 -0.8,3.38 -1.17,5.09 -0.37,1.7 -0.56,3.16 -0.56,4.35 0,2.42 0.68,4.08 2.04,5.02 1.35,0.95 3.42,1.42 6.23,1.42 1.13,0 2.61,-0.23 4.46,-0.66 1.83,-0.43 3.28,-0.9 4.37,-1.43l1.81 0 -3.37 14.45c-2.46,0.61 -5.03,1.08 -7.74,1.41 -2.73,0.35 -5.97,0.51 -9.73,0.51z"/>
   <path id="_5" class="fil4" d="M1217.74 1441.6l-15.62 67.48 -21.74 0 15.62 -67.48 21.74 0zm6.6 -25.98l-3.77 16.37 -22.95 0 3.78 -16.37 22.94 0z"/>
   <polygon id="_6" class="fil4" points="1305.35,1441.6 1263.64,1509.08 1238.97,1509.08 1228.75,1441.6 1251.04,1441.6 1255.97,1488.15 1282.03,1441.6 "/>
   <path id="_7" class="fil4" d="M1357.07 1466.72c0.12,-0.72 0.22,-1.38 0.28,-1.99 0.07,-0.6 0.09,-1.21 0.09,-1.87 0,-3.16 -0.99,-5.6 -2.98,-7.28 -1.97,-1.69 -4.82,-2.53 -8.54,-2.53 -4.49,0 -8.27,1.21 -11.31,3.61 -3.05,2.4 -5.37,5.77 -6.95,10.06l29.41 0zm-16.61 44.21c-11.53,0 -20.42,-2.55 -26.7,-7.64 -6.26,-5.09 -9.4,-12.13 -9.4,-21.1 0,-6.13 1.03,-11.76 3.08,-16.89 2.03,-5.13 4.99,-9.64 8.85,-13.52 3.69,-3.78 8.31,-6.75 13.85,-8.97 5.54,-2.2 11.62,-3.3 18.25,-3.3 10.07,0 17.67,2.03 22.8,6.11 5.11,4.07 7.67,10.08 7.67,18.02 0,2.73 -0.26,5.4 -0.82,8.01 -0.53,2.6 -1.25,5.19 -2.13,7.75l-50.37 0c0,0.25 0,0.48 0,0.68 0,0.23 0,0.45 0,0.7 0,4.66 1.67,8.31 4.97,10.94 3.3,2.62 8.35,3.94 15.17,3.94 4.76,0 9.25,-0.8 13.52,-2.4 4.25,-1.6 7.94,-3.39 11.08,-5.36l2.43 0 -4.05 17.42c-4.2,1.85 -8.66,3.25 -13.32,4.19 -4.66,0.95 -9.62,1.42 -14.88,1.42z"/>
   <polygon class="fil5" points="1498.98,1443.48 1472.79,1443.48 1457.24,1515.64 1435.54,1515.64 1451.07,1443.48 1425.05,1443.48 1428.76,1426.12 1502.7,1426.12 "/>
   <path id="_1_0" class="fil5" d="M1551.17 1468.85l-1.81 0c-0.88,-0.33 -2.17,-0.58 -3.82,-0.74 -1.63,-0.17 -3.26,-0.25 -4.88,-0.25 -2.67,0 -5.22,0.21 -7.7,0.64 -2.47,0.41 -5,1.09 -7.64,2.01l-9.77 45.13 -20.38 0 14.62 -67.48 20.37 0 -2.15 9.91c3.82,-2.99 7.65,-5.44 11.44,-7.32 3.8,-1.89 7.63,-2.84 11.48,-2.84 0.71,0 1.52,0.02 2.41,0.06 0.86,0.05 1.64,0.11 2.32,0.19l-4.49 20.69z"/>
   <path id="_2_1" class="fil5" d="M1597.67 1483.75c-3.63,0.33 -7.05,0.69 -10.21,1.15 -3.19,0.43 -5.88,1.06 -8.12,1.9 -2.31,0.89 -4.05,2.14 -5.27,3.74 -1.21,1.6 -1.83,3.71 -1.83,6.36 0,2.32 0.81,3.94 2.43,4.89 1.61,0.94 3.96,1.41 7.02,1.41 2,0 4.15,-0.49 6.46,-1.45 2.28,-0.99 4.43,-2.22 6.45,-3.74l3.07 -14.26zm-5.32 24.77c-1.28,0.88 -2.83,1.95 -4.65,3.18 -1.81,1.25 -3.47,2.24 -5,2.95 -2.12,0.93 -4.09,1.63 -5.94,2.12 -1.84,0.47 -4.41,0.72 -7.68,0.72 -5.28,0 -9.58,-1.58 -12.93,-4.72 -3.32,-3.16 -4.98,-7.27 -4.98,-12.32 0,-5.33 1.18,-9.87 3.55,-13.58 2.36,-3.72 5.85,-6.67 10.5,-8.87 4.36,-2.09 9.54,-3.59 15.56,-4.51 6,-0.93 12.52,-1.63 19.54,-2.06 0.04,-0.24 0.11,-0.63 0.23,-1.17 0.14,-0.55 0.19,-1.17 0.19,-1.84 0,-2.86 -1.24,-4.85 -3.72,-5.98 -2.46,-1.15 -6.17,-1.72 -11.08,-1.72 -3.32,0 -7.02,0.59 -11.04,1.81 -4.03,1.19 -7.07,2.19 -9.08,2.99l-1.86 0 2.97 -15.97c2.36,-0.63 6.03,-1.37 10.98,-2.17 4.93,-0.8 9.87,-1.19 14.79,-1.19 9.9,0 17.16,1.37 21.79,4.14 4.63,2.78 6.95,7.06 6.95,12.87 0,0.8 -0.06,1.85 -0.19,3.14 -0.14,1.28 -0.31,2.4 -0.54,3.37l-9.87 45.93 -20.02 0 1.53 -7.12z"/>
   <path id="_3_2" class="fil5" d="M1664.34 1448.16l-14.61 67.48 -20.34 0 14.61 -67.48 20.34 0zm6.18 -25.98l-3.53 16.37 -21.47 0 3.53 -16.37 21.47 0z"/>
   <path id="_4_3" class="fil5" d="M1742.73 1463.43c0,1.21 -0.07,2.5 -0.23,3.9 -0.15,1.41 -0.38,2.87 -0.73,4.39l-9.42 43.92 -20.4 0 7.08 -33.43c0.53,-2.49 0.93,-4.6 1.22,-6.36 0.3,-1.75 0.44,-3.39 0.44,-4.91 0,-2.61 -0.62,-4.51 -1.84,-5.71 -1.24,-1.21 -3.5,-1.8 -6.8,-1.8 -1.59,0 -3.46,0.37 -5.55,1.11 -2.1,0.74 -4.45,1.84 -7.07,3.32l-10.29 47.78 -20.37 0 14.61 -67.48 20.38 0 -1.68 7.45c4.17,-2.92 7.95,-5.19 11.39,-6.84 3.43,-1.64 7.2,-2.46 11.33,-2.46 5.66,0 10.06,1.46 13.21,4.39 3.15,2.92 4.72,7.17 4.72,12.73z"/>
   <path id="_5_4" class="fil5" d="M1785.79 1448.16l-14.62 67.48 -20.34 0 14.62 -67.48 20.34 0zm6.17 -25.98l-3.52 16.37 -21.48 0 3.54 -16.37 21.46 0z"/>
   <path id="_6_5" class="fil5" d="M1864.18 1463.43c0,1.21 -0.08,2.5 -0.24,3.9 -0.15,1.41 -0.38,2.87 -0.73,4.39l-9.42 43.92 -20.39 0 7.08 -33.43c0.52,-2.49 0.93,-4.6 1.22,-6.36 0.3,-1.75 0.44,-3.39 0.44,-4.91 0,-2.61 -0.62,-4.51 -1.85,-5.71 -1.23,-1.21 -3.5,-1.8 -6.8,-1.8 -1.59,0 -3.45,0.37 -5.55,1.11 -2.09,0.74 -4.45,1.84 -7.06,3.32l-10.29 47.78 -20.38 0 14.62 -67.48 20.37 0 -1.67 7.45c4.16,-2.92 7.95,-5.19 11.38,-6.84 3.44,-1.64 7.21,-2.46 11.33,-2.46 5.66,0 10.06,1.46 13.21,4.39 3.16,2.92 4.73,7.17 4.73,12.73z"/>
   <path id="_7_6" class="fil5" d="M1948.29 1448.16l-12.7 59.7c-1.38,6.4 -3.34,11.72 -5.89,15.97 -2.56,4.25 -5.67,7.63 -9.32,10.16 -3.74,2.58 -7.81,4.41 -12.21,5.46 -4.4,1.04 -9.33,1.56 -14.82,1.56 -4.54,0 -8.9,-0.29 -13.06,-0.87 -4.18,-0.59 -7.68,-1.25 -10.55,-2.01l3.1 -16.58 2.5 0c3.11,1.27 6.26,2.3 9.46,3.06 3.19,0.76 6.03,1.13 8.51,1.13 3.57,0 6.66,-0.35 9.29,-1.05 2.63,-0.7 4.71,-1.7 6.2,-3.02 1.61,-1.41 2.9,-3.12 3.86,-5.17 0.96,-2.03 1.73,-4.53 2.33,-7.49l0.26 -1.27c-2.92,2.13 -5.84,3.82 -8.71,5.05 -2.9,1.25 -6.16,1.86 -9.79,1.86 -7.09,0 -12.63,-1.9 -16.63,-5.7 -3.99,-3.8 -6,-9.54 -6,-17.24 0,-13.26 3.52,-24.14 10.53,-32.63 7.02,-8.52 15.53,-12.77 25.56,-12.77 3.6,0 6.87,0.45 9.82,1.38 2.94,0.92 5.32,2.07 7.13,3.49l1.4 -3.02 19.73 0zm-23.72 15.7c-1.08,-0.51 -2.52,-1.01 -4.3,-1.46 -1.79,-0.47 -3.36,-0.7 -4.71,-0.7 -6.04,0 -10.93,2.43 -14.6,7.27 -3.68,4.82 -5.52,11.04 -5.52,18.64 0,3.44 0.79,6.11 2.36,8.04 1.57,1.91 4.42,2.87 8.53,2.87 1.97,0 3.99,-0.41 6.05,-1.23 2.05,-0.82 3.97,-1.78 5.77,-2.91l6.42 -30.52z"/>
  </g>
 </g>
</svg>
