<svg xmlns="http://www.w3.org/2000/svg" xml:space="preserve" width="25.4mm" height="25.4mm" version="1.1" style="shape-rendering:geometricPrecision; text-rendering:geometricPrecision; image-rendering:optimizeQuality; fill-rule:evenodd; clip-rule:evenodd"
viewBox="0 0 2540 2540"
 xmlns:xlink="http://www.w3.org/1999/xlink"
 xmlns:xodm="http://www.corel.com/coreldraw/odm/2003">
 <defs>
  <style type="text/css">
   <![CDATA[
    .fil0 {fill:black}
    .fil1 {fill:#DB020B}
    .fil3 {fill:#DB020B}
    .fil2 {fill:white}
    .fil4 {fill:black;fill-rule:nonzero}
    .fil5 {fill:#DB020B;fill-rule:nonzero}
   ]]>
  </style>
 </defs>
 <g id="Слой_x0020_1">
  <metadata id="CorelCorpID_0Corel-Layer"/>
  <g id="_2804698641264">
   <polygon class="fil0" points="-60.01,1148.41 -262.8,1148.41 -270.67,1174.19 -60.01,1174.19 "/>
   <rect class="fil0" x="-279.14" y="1199.59" width="213.76" height="8.47"/>
   <polygon class="fil0" points="-279.14,1224.99 -42.07,1224.99 -42.07,1302.05 -268.89,1302.05 "/>
   <path class="fil1" d="M-194.47 954.06c154.95,0 142.23,94.59 132.32,221.45 -7.7,98.34 -33.34,203.46 -115.39,252.68l-135.46 50.8 -135.47 8.47 -84.67 8.47 -16.93 16.93c130.37,108.66 165.74,126.9 294.75,117.87 209.3,-14.58 343.71,-125.47 423.86,-318.36 45.4,-109.18 62.95,-237.01 24.51,-348.5 -37.13,-107.7 -136.8,-177.13 -247.63,-192 -114.32,-15.34 -223.61,1.57 -317.69,72.12l101.6 16.94 33.87 59.26 42.33 33.87z"/>
   <polygon class="fil2" points="-417.94,846.37 -314.99,846.37 -278.69,846.15 -278.48,1595.97 -426.63,1593.89 -475.79,1509.7 -507.45,1509.16 -574.22,1290.54 -417.94,1037.27 "/>
   <path class="fil0" d="M-169.07 1123.39l-76.2 0c-11.83,-35.52 -34.99,-35.03 -43.18,6.04 -8.85,44.49 -9.78,107.48 -5.79,153.18 6.79,77.53 48.97,56.31 48.97,43.98l76.2 0c-7.32,73.21 -12.02,241.83 -101.11,268.32 -31.86,9.49 -59.71,-45.25 -79.77,-102.16 -55.94,-158.73 -58.54,-386.65 3.08,-555.62 24.24,-66.49 46.52,-92.1 68.18,-90.98 81.35,4.21 109.62,212.19 109.62,277.24z"/>
   <path class="fil0" d="M-314.99 846.37c-16.11,16.94 -31.21,40.73 -44.57,70.03l-108.74 0c14.97,-30.05 32.07,-53.47 50.36,-70.03l102.95 0zm-64.24 121.01c-2.26,6.95 -4.44,14.09 -6.52,21.42l-110.35 0c2.16,-7.37 4.42,-14.51 6.77,-21.42l110.1 0zm-10.46 35.87c-16.14,62.07 -25.84,135.92 -25.84,215.58 0,169.78 43.13,320.56 103.31,375.06l4.19 1.66 -118.6 -1.66c-57.89,-62.92 -98.96,-216.92 -98.96,-368.11 0,-88 9.53,-162.35 25.46,-222.53l110.44 0z"/>
   <path class="fil0" d="M-507.84 938.54c-5.7,13.42 -10.97,28.75 -15.75,45.7l-88.1 0c6.82,-17.3 14.32,-32.65 22.41,-45.7l81.44 0zm-26.13 88.97c-0.81,3.97 -1.59,8.01 -2.35,12.1l-93.05 0c1.05,-4.1 2.13,-8.13 3.25,-12.1l92.15 0zm-4.4 23.64c-8.61,50.75 -13.54,109.54 -13.54,172.23 0,118.53 17.6,223.17 44.46,285.78l-94.89 0c-30.3,-63.53 -49.78,-162.32 -49.78,-273.26 0,-67.91 7.3,-131.26 19.91,-184.75l93.84 0z"/>
   <path class="fil0" d="M-640.7 1011.34c-3.77,10.45 -7.28,22.07 -10.47,34.71l-59.87 0c4.01,-12.57 8.4,-24.19 13.15,-34.71l57.19 0zm-21.17 88.3c-0.65,4.19 -1.26,8.45 -1.85,12.76l-63.17 0c0.74,-4.31 1.52,-8.57 2.34,-12.76l62.68 0zm-3.43 25.01c-4.16,34.57 -6.46,72.64 -6.46,112.65 0,74.93 8.09,143.12 21.33,194.12l-56.7 0c-18.3,-51.45 -29.56,-121.41 -29.56,-198.51 0,-38.32 2.79,-74.87 7.83,-108.26l63.56 0z"/>
   <path class="fil0" d="M-749.95 1146.74c-3.35,7.82 -6.25,17.04 -8.56,27.34l-58.18 0c4.05,-10.3 9.1,-19.52 14.94,-27.34l51.8 0zm-12.27 48.36c-0.65,4.91 -1.18,9.98 -1.58,15.18l-62.12 0c0.7,-5.2 1.63,-10.27 2.76,-15.18l60.94 0zm-2.24 26.56c-0.16,4.06 -0.24,8.19 -0.24,12.37 0,23.62 2.61,45.57 7.1,63.82l-57.5 0c-7.83,-18.25 -12.39,-40.2 -12.39,-63.82 0,-4.18 0.14,-8.31 0.42,-12.37l62.61 0z"/>
   <g>
    <path class="fil3" d="M2683.8 1162.01l113.73 0 7.95 25.78 -123.36 0c0.8,-8.71 1.35,-17.31 1.68,-25.78z"/>
    <polygon class="fil3" points="2814.02,1213.19 2679.15,1213.19 2677.88,1221.66 2814.02,1221.66 "/>
    <path class="fil3" d="M2814.02 1238.59l-139.1 0c-5.07,26.41 -11.98,51.39 -20.31,74.36l0 2.7 149.07 0 10.34 -77.06z"/>
    <path class="fil3" d="M2702.93 1136.99l76.91 0c11.93,-35.52 35.31,-35.03 43.57,6.04 8.95,44.49 9.88,107.48 5.85,153.18 -6.85,77.53 -49.42,56.31 -49.42,43.98l-76.91 0c7.38,73.21 12.13,241.83 102.05,268.32 32.16,9.49 60.27,-45.25 80.51,-102.16 56.47,-158.73 59.09,-386.65 -3.11,-555.62 -24.46,-66.49 -46.95,-92.1 -68.81,-90.98 -82.11,4.21 -110.64,212.19 -110.64,277.24z"/>
    <path class="fil3" d="M2850.21 859.97c16.26,16.94 31.49,40.73 44.98,70.03l109.75 0c-15.1,-30.05 -32.36,-53.47 -50.82,-70.03l-103.91 0zm64.84 121.01c2.28,6.95 4.47,14.09 6.58,21.42l111.38 0c-2.18,-7.37 -4.47,-14.51 -6.84,-21.42l-111.12 0zm10.55 35.87c16.29,62.07 26.09,135.92 26.09,215.58 0,169.78 -43.53,320.56 -104.28,375.06l-4.23 1.66 119.71 -1.66c58.42,-62.92 99.88,-216.92 99.88,-368.11 0,-88 -9.62,-162.35 -25.69,-222.53l-111.48 0z"/>
    <path class="fil3" d="M3044.86 952.14c5.75,13.42 11.07,28.75 15.9,45.7l88.92 0c-6.89,-17.3 -14.46,-32.65 -22.63,-45.7l-82.19 0zm26.37 88.97c0.82,3.97 1.6,8.01 2.37,12.1l93.92 0c-1.06,-4.1 -2.15,-8.13 -3.28,-12.1l-93.01 0zm4.45 23.64c8.69,50.75 13.66,109.54 13.66,172.23 0,118.53 -17.77,223.17 -44.88,285.78l95.78 0c30.58,-63.53 50.24,-162.32 50.24,-273.26 0,-67.91 -7.36,-131.26 -20.09,-184.75l-94.71 0z"/>
    <path class="fil3" d="M3178.96 1024.94c3.81,10.45 7.34,22.07 10.57,34.71l60.42 0c-4.04,-12.57 -8.48,-24.19 -13.27,-34.71l-57.72 0zm21.36 88.3c0.66,4.19 1.27,8.45 1.88,12.76l63.75 0c-0.75,-4.31 -1.53,-8.57 -2.36,-12.76l-63.27 0zm3.47 25.01c4.2,34.57 6.51,72.64 6.51,112.65 0,74.93 -8.16,143.12 -21.52,194.12l57.23 0c18.47,-51.45 29.84,-121.41 29.84,-198.51 0,-38.32 -2.82,-74.87 -7.91,-108.26l-64.15 0z"/>
    <path class="fil3" d="M3289.22 1160.34c3.39,7.82 6.31,17.04 8.65,27.34l58.71 0c-4.08,-10.3 -9.18,-19.52 -15.07,-27.34l-52.29 0zm12.39 48.36c0.66,4.91 1.19,9.98 1.6,15.18l62.7 0c-0.71,-5.2 -1.65,-10.27 -2.79,-15.18l-61.51 0zm2.26 26.56c0.16,4.06 0.24,8.19 0.24,12.37 0,23.62 -2.63,45.57 -7.17,63.82l58.04 0c7.9,-18.25 12.51,-40.2 12.51,-63.82 0,-4.18 -0.14,-8.31 -0.43,-12.37l-63.19 0z"/>
   </g>
   <polygon class="fil3" points="197.65,1491.75 276.28,1069.52 572.53,1069.52 559.53,1163.27 375.06,1164.28 362.97,1239.88 500.06,1244.92 486.95,1328.59 349.86,1329.59 318.79,1491.75 "/>
   <polygon class="fil3" points="623.04,1069.52 935.65,1069.52 917.47,1162.94 727.44,1162.94 717.47,1233.9 870.55,1232.73 852.37,1323.64 705.73,1321.87 694.6,1394.02 877.92,1397.23 862.34,1491.75 550.32,1491.75 "/>
   <polygon class="fil3" points="999.65,1069.52 924.17,1491.75 1040.03,1491.75 1054.07,1395.12 1113.75,1331.93 1164.65,1491.75 1298.93,1491.75 1211.17,1224.86 1348.08,1069.52 1239.25,1069.52 1089.17,1244.17 1111.12,1069.52 "/>
   <polygon class="fil0" points="1734.76,1069.52 1660.07,1491.75 1785.23,1491.75 1858.91,1069.52 "/>
   <polygon class="fil0" points="1898.28,1069.52 1966.91,1491.75 2095.1,1491.75 2305.05,1069.52 2197.05,1069.52 2070.88,1345.51 2028.49,1069.52 "/>
   <polygon class="fil0" points="2345.14,1069.52 2657.75,1069.52 2639.57,1162.94 2449.54,1162.94 2439.57,1233.9 2592.65,1232.73 2574.47,1323.64 2427.83,1321.87 2416.7,1394.02 2600.02,1397.23 2584.44,1491.75 2272.42,1491.75 "/>
   <path class="fil0" d="M1402.8 1384.07l278.14 -201.14c-80.37,90.54 -85.67,90.44 -128.12,198.48l-19.91 110.34 -153.35 0 23.24 -107.68z"/>
   <path class="fil0" d="M1361.64 1379.42l243.63 -182.55 41.82 -185.88 190.52 0 24.56 -110.68 -226.37 0c-23.2,0 -43.14,4.57 -26.99,-28.59 17.85,-36.66 78.38,-84.87 93.38,-100.37l-331.86 239.64 130.91 0 -61.92 245.8c-14.93,59.22 -39.77,78.7 -77.68,122.63z"/>
   <path class="fil0" d="M1347.76 900.31l131.61 0c-76.34,56.6 -150.03,119.7 -233.24,165.81 56.03,-68.09 72.56,-82.74 101.63,-165.81z"/>
   <polygon class="fil4" points="528.96,1547.76 521.68,1579.32 443.96,1579.32 437.09,1609.06 509.29,1609.06 501.94,1640.62 429.81,1640.62 420.17,1682.48 497.63,1682.48 490.5,1714.04 370,1714.04 408.39,1547.76 "/>
   <path id="_1" class="fil4" d="M680.45 1588.7l31.03 0 -6.14 26.53 -29.69 0 -22.8 98.81 -40.22 0 22.8 -98.81 -45.02 0 -22.99 98.81 -40.21 0 22.79 -98.81 -17.19 0 6.14 -26.53 17.19 0 0.8 -3.47c3.32,-14.94 9.57,-26.38 18.64,-34.27 9.07,-7.93 22.83,-11.89 41.32,-11.89 10.94,0 20.43,0.76 28.48,2.25l-6.6 28.44 -3.01 0 -5.26 -1.45c-3.66,-0.88 -7.05,-1.34 -10.25,-1.34 -7.25,0 -12.77,1.45 -16.59,4.31 -3.85,2.9 -6.67,8.35 -8.46,16.43l-0.19 0.99 46.55 0 0.8 -3.47c3.35,-14.94 9.56,-26.38 18.64,-34.27 9.07,-7.93 22.87,-11.89 41.32,-11.89 10.94,0 20.43,0.76 28.47,2.25l-6.59 28.44 -3.01 0 -5.26 -1.45c-3.62,-0.88 -7.05,-1.34 -10.26,-1.34 -7.24,0 -12.77,1.45 -16.58,4.31 -3.85,2.9 -6.63,8.35 -8.42,16.43l-0.23 0.99z"/>
   <path id="_2" class="fil4" d="M814.48 1635.36c0.22,-1.33 0.42,-2.55 0.53,-3.7 0.11,-1.1 0.15,-2.25 0.15,-3.47 0,-5.87 -1.83,-10.4 -5.53,-13.53 -3.65,-3.12 -8.95,-4.69 -15.85,-4.69 -8.35,0 -15.37,2.25 -21.01,6.71 -5.68,4.46 -9.98,10.71 -12.92,18.68l54.63 0zm-30.84 82.11c-21.43,0 -37.93,-4.73 -49.6,-14.18 -11.62,-9.45 -17.46,-22.53 -17.46,-39.19 0,-11.4 1.91,-21.84 5.72,-31.37 3.78,-9.53 9.27,-17.92 16.43,-25.12 6.86,-7.02 15.44,-12.54 25.73,-16.66 10.3,-4.08 21.58,-6.14 33.89,-6.14 18.72,0 32.82,3.78 42.35,11.36 9.49,7.55 14.26,18.72 14.26,33.47 0,5.07 -0.5,10.03 -1.53,14.87 -0.99,4.84 -2.32,9.64 -3.96,14.41l-93.55 0c0,0.46 0,0.88 0,1.26 0,0.42 0,0.84 0,1.29 0,8.66 3.09,15.44 9.23,20.32 6.14,4.88 15.51,7.32 28.17,7.32 8.84,0 17.19,-1.49 25.12,-4.46 7.89,-2.97 14.75,-6.29 20.59,-9.95l4.49 0 -7.51 32.36c-7.81,3.43 -16.08,6.03 -24.74,7.78 -8.65,1.75 -17.87,2.63 -27.63,2.63z"/>
   <path id="_3" class="fil4" d="M929.37 1717.47c-8.54,0 -16.58,-1.07 -24.05,-3.16 -7.48,-2.14 -13.99,-5.45 -19.56,-9.91 -5.45,-4.39 -9.68,-9.88 -12.73,-16.51 -3.05,-6.63 -4.58,-14.3 -4.58,-23.02 0,-11.21 2.14,-21.66 6.41,-31.3 4.27,-9.65 10.29,-18.07 18.03,-25.31 7.58,-7.06 16.85,-12.66 27.75,-16.78 10.94,-4.15 22.76,-6.21 35.49,-6.21 7.66,0 15.25,0.84 22.8,2.55 7.54,1.72 14.56,4.24 21.04,7.51l-8.46 34.31 -5.72 0c-4.39,-5.33 -9.34,-9.3 -14.87,-11.89 -5.53,-2.59 -11.78,-3.89 -18.68,-3.89 -12.65,0 -22.79,4.5 -30.46,13.5 -7.66,8.99 -11.47,20.2 -11.47,33.66 0,9.3 2.36,16.27 7.09,20.92 4.73,4.62 12.05,6.94 22.03,6.94 7.74,0 14.76,-1.6 21.12,-4.76 6.37,-3.17 11.82,-6.68 16.36,-10.56l5.68 0 -8.47 34.23c-8.04,3.47 -15.09,5.95 -21.15,7.43 -6.07,1.49 -13.92,2.25 -23.6,2.25z"/>
   <path id="_4" class="fil4" d="M1047.58 1716.56c-13.96,0 -23.94,-2.29 -29.89,-6.87 -5.98,-4.57 -8.96,-11.36 -8.96,-20.35 0,-2.4 0.19,-4.69 0.57,-6.94 0.35,-2.21 0.84,-4.84 1.45,-7.81l13.73 -59.36 -16.62 0 6.13 -26.53 16.58 0 8.31 -35.91 40.49 0 -8.31 35.91 37.62 0 -6.13 26.53 -37.63 0 -10.56 45.29c-0.76,3.13 -1.49,6.29 -2.17,9.45 -0.69,3.17 -1.03,5.87 -1.03,8.08 0,4.5 1.26,7.59 3.77,9.34 2.52,1.76 6.37,2.63 11.59,2.63 2.1,0 4.84,-0.41 8.27,-1.22 3.4,-0.8 6.1,-1.67 8.12,-2.66l3.36 0 -6.25 26.83c-4.58,1.15 -9.34,2.02 -14.37,2.63 -5.07,0.65 -11.1,0.96 -18.07,0.96z"/>
   <path id="_5" class="fil4" d="M1172.91 1588.7l-29.01 125.34 -40.37 0 29.01 -125.34 40.37 0zm12.28 -48.26l-7.02 30.42 -42.61 0 7.01 -30.42 42.62 0z"/>
   <polygon id="_6" class="fil4" points="1335.64,1588.7 1258.18,1714.04 1212.36,1714.04 1193.38,1588.7 1234.78,1588.7 1243.93,1675.16 1292.34,1588.7 "/>
   <path id="_7" class="fil4" d="M1431.71 1635.36c0.22,-1.33 0.42,-2.55 0.53,-3.7 0.11,-1.1 0.15,-2.25 0.15,-3.47 0,-5.87 -1.83,-10.4 -5.53,-13.53 -3.65,-3.12 -8.95,-4.69 -15.85,-4.69 -8.35,0 -15.37,2.25 -21.01,6.71 -5.68,4.46 -9.98,10.71 -12.92,18.68l54.63 0zm-30.84 82.11c-21.43,0 -37.93,-4.73 -49.6,-14.18 -11.62,-9.45 -17.46,-22.53 -17.46,-39.19 0,-11.4 1.91,-21.84 5.72,-31.37 3.78,-9.53 9.27,-17.92 16.43,-25.12 6.86,-7.02 15.44,-12.54 25.73,-16.66 10.3,-4.08 21.58,-6.14 33.89,-6.14 18.72,0 32.82,3.78 42.35,11.36 9.49,7.55 14.26,18.72 14.26,33.47 0,5.07 -0.5,10.03 -1.53,14.87 -0.99,4.84 -2.32,9.64 -3.96,14.41l-93.55 0c0,0.46 0,0.88 0,1.26 0,0.42 0,0.84 0,1.29 0,8.66 3.09,15.44 9.23,20.32 6.14,4.88 15.51,7.32 28.17,7.32 8.84,0 17.19,-1.49 25.12,-4.46 7.89,-2.97 14.75,-6.29 20.59,-9.95l4.49 0 -7.51 32.36c-7.81,3.43 -16.08,6.03 -24.74,7.78 -8.65,1.75 -17.87,2.63 -27.63,2.63z"/>
   <polygon class="fil5" points="1695.29,1592.2 1646.65,1592.2 1617.76,1726.23 1577.45,1726.23 1606.31,1592.2 1557.98,1592.2 1564.87,1559.95 1702.21,1559.95 "/>
   <path id="_1_0" class="fil5" d="M1792.22 1639.32l-3.35 0c-1.64,-0.61 -4.03,-1.07 -7.1,-1.38 -3.03,-0.3 -6.06,-0.45 -9.06,-0.45 -4.95,0 -9.7,0.38 -14.3,1.18 -4.59,0.76 -9.3,2.02 -14.19,3.73l-18.15 83.83 -37.85 0 27.14 -125.34 37.85 0 -4 18.41c7.1,-5.56 14.2,-10.1 21.26,-13.61 7.06,-3.5 14.15,-5.26 21.32,-5.26 1.33,0 2.83,0.04 4.46,0.12 1.61,0.07 3.07,0.19 4.32,0.34l-8.35 38.43z"/>
   <path id="_2_1" class="fil5" d="M1878.6 1666.99c-6.74,0.61 -13.09,1.3 -18.97,2.14 -5.92,0.8 -10.92,1.98 -15.09,3.54 -4.28,1.64 -7.52,3.97 -9.77,6.94 -2.25,2.97 -3.4,6.9 -3.4,11.82 0,4.3 1.51,7.32 4.5,9.07 3,1.75 7.35,2.63 13.05,2.63 3.71,0 7.7,-0.92 11.99,-2.71 4.24,-1.83 8.23,-4.11 11.98,-6.94l5.71 -26.49zm-9.88 46.01c-2.39,1.64 -5.25,3.62 -8.63,5.91 -3.35,2.33 -6.46,4.16 -9.31,5.49 -3.92,1.72 -7.6,3.01 -11.02,3.93 -3.43,0.87 -8.21,1.33 -14.27,1.33 -9.81,0 -17.8,-2.93 -24,-8.77 -6.17,-5.87 -9.27,-13.49 -9.27,-22.87 0,-9.91 2.21,-18.33 6.6,-25.23 4.38,-6.9 10.88,-12.39 19.5,-16.47 8.1,-3.89 17.73,-6.67 28.89,-8.39 11.16,-1.71 23.25,-3.01 36.31,-3.81 0.07,-0.46 0.21,-1.18 0.42,-2.17 0.26,-1.03 0.36,-2.18 0.36,-3.43 0,-5.3 -2.31,-9 -6.92,-11.1 -4.56,-2.13 -11.45,-3.2 -20.58,-3.2 -6.16,0 -13.01,1.11 -20.51,3.36 -7.48,2.21 -13.11,4.07 -16.86,5.56l-3.46 0 5.52 -29.66c4.39,-1.18 11.2,-2.55 20.41,-4.04 9.17,-1.48 18.33,-2.21 27.46,-2.21 18.4,0 31.88,2.56 40.48,7.7 8.6,5.15 12.91,13.12 12.91,23.9 0,1.49 -0.11,3.43 -0.36,5.84 -0.25,2.36 -0.57,4.46 -1,6.25l-18.32 85.31 -37.2 0 2.85 -13.23z"/>
   <path id="_3_2" class="fil5" d="M2002.41 1600.89l-27.14 125.34 -37.77 0 27.14 -125.34 37.77 0zm11.49 -48.26l-6.57 30.42 -39.86 0 6.56 -30.42 39.87 0z"/>
   <path id="_4_3" class="fil5" d="M2148.02 1629.25c0,2.25 -0.14,4.65 -0.42,7.25 -0.29,2.63 -0.72,5.33 -1.35,8.15l-17.52 81.58 -37.87 0 13.16 -62.1c0.96,-4.61 1.71,-8.54 2.24,-11.81 0.57,-3.24 0.82,-6.29 0.82,-9.12 0,-4.84 -1.14,-8.38 -3.42,-10.59 -2.28,-2.25 -6.49,-3.36 -12.62,-3.36 -2.97,0 -6.42,0.69 -10.31,2.06 -3.88,1.37 -8.27,3.43 -13.13,6.18l-19.11 88.74 -37.84 0 27.14 -125.34 37.84 0 -3.11 13.84c7.74,-5.41 14.77,-9.65 21.16,-12.69 6.38,-3.05 13.37,-4.58 21.04,-4.58 10.51,0 18.68,2.71 24.54,8.16 5.85,5.41 8.76,13.3 8.76,23.63z"/>
   <path id="_5_4" class="fil5" d="M2227.98 1600.89l-27.14 125.34 -37.77 0 27.14 -125.34 37.77 0zm11.49 -48.26l-6.57 30.42 -39.87 0 6.56 -30.42 39.88 0z"/>
   <path id="_6_5" class="fil5" d="M2373.59 1629.25c0,2.25 -0.14,4.65 -0.42,7.25 -0.29,2.63 -0.72,5.33 -1.36,8.15l-17.51 81.58 -37.87 0 13.15 -62.1c0.96,-4.61 1.71,-8.54 2.25,-11.81 0.57,-3.24 0.82,-6.29 0.82,-9.12 0,-4.84 -1.14,-8.38 -3.43,-10.59 -2.28,-2.25 -6.49,-3.36 -12.62,-3.36 -2.96,0 -6.41,0.69 -10.31,2.06 -3.88,1.37 -8.27,3.43 -13.12,6.18l-19.12 88.74 -37.84 0 27.14 -125.34 37.85 0 -3.11 13.84c7.74,-5.41 14.76,-9.65 21.15,-12.69 6.38,-3.05 13.37,-4.58 21.04,-4.58 10.52,0 18.69,2.71 24.54,8.16 5.85,5.41 8.77,13.3 8.77,23.63z"/>
   <path id="_7_6" class="fil5" d="M2529.83 1600.89l-23.61 110.89c-2.57,11.9 -6.21,21.77 -10.95,29.66 -4.74,7.89 -10.52,14.18 -17.3,18.87 -6.95,4.8 -14.51,8.2 -22.68,10.14 -8.17,1.94 -17.33,2.9 -27.53,2.9 -8.41,0 -16.51,-0.54 -24.25,-1.6 -7.78,-1.11 -14.27,-2.33 -19.58,-3.74l5.74 -30.8 4.64 0c5.77,2.36 11.62,4.27 17.58,5.68 5.92,1.41 11.2,2.1 15.8,2.1 6.64,0 12.37,-0.65 17.26,-1.95 4.89,-1.3 8.74,-3.16 11.52,-5.6 2.99,-2.63 5.38,-5.8 7.17,-9.61 1.78,-3.77 3.21,-8.42 4.31,-13.91l0.51 -2.37c-5.43,3.97 -10.85,7.09 -16.2,9.38 -5.39,2.33 -11.45,3.47 -18.19,3.47 -13.16,0 -23.46,-3.54 -30.88,-10.6 -7.42,-7.05 -11.13,-17.72 -11.13,-32.02 0,-24.62 6.53,-44.83 19.54,-60.61 13.06,-15.82 28.85,-23.71 47.47,-23.71 6.71,0 12.77,0.84 18.26,2.55 5.46,1.72 9.88,3.85 13.23,6.49l2.6 -5.61 36.67 0zm-44.08 29.16c-2,-0.95 -4.67,-1.86 -7.99,-2.7 -3.32,-0.88 -6.24,-1.3 -8.73,-1.3 -11.24,0 -20.3,4.5 -27.11,13.5 -6.85,8.95 -10.27,20.5 -10.27,34.61 0,6.4 1.46,11.36 4.39,14.94 2.92,3.55 8.19,5.34 15.83,5.34 3.67,0 7.42,-0.76 11.23,-2.29 3.82,-1.52 7.39,-3.32 10.73,-5.41l11.92 -56.69z"/>
  </g>
 </g>
</svg>
