<svg width="108" height="109" viewBox="0 0 108 109" fill="none" xmlns="http://www.w3.org/2000/svg">
<path d="M101.4 108.832C89.5 108.832 77.5 106.053 65.4 100.495C53.3 94.9374 42.15 87.0516 31.95 76.8375C21.75 66.6234 13.875 55.4581 8.325 43.3414C2.775 31.2247 0 19.2081 0 7.29172C0 5.40342 0.62855 3.8298 1.88565 2.57087C3.14285 1.31203 4.7143 0.682617 6.6 0.682617H28.7C30.1 0.682617 31.3166 1.17495 32.3499 2.1596C33.3833 3.14436 34.0667 4.35437 34.4 5.78965L38.3928 25.3807C38.5976 26.8733 38.5667 28.1871 38.3 29.322C38.0333 30.4569 37.4923 31.4325 36.6771 32.2487L21.8499 47.2467C24.2499 51.4192 26.8749 55.3496 29.7249 59.038C32.5749 62.7264 35.7166 66.2396 39.15 69.5776C42.65 73.1492 46.3333 76.4287 50.2 79.4161C54.0667 82.4035 58.1334 85.0655 62.4 87.4022L76.6001 72.8821C77.5667 71.8474 78.7301 71.1214 80.0901 70.7041C81.4502 70.2868 82.7868 70.1783 84.1001 70.3786L102.9 74.3842C104.367 74.7847 105.583 75.5623 106.55 76.7169C107.517 77.8714 108 79.1633 108 80.5927V102.222C108 104.111 107.371 105.684 106.114 106.943C104.857 108.202 103.286 108.832 101.4 108.832ZM16.95 37.9339L28.35 26.418L25.2 10.6963H10.05C10.35 14.8688 11.0333 19.1747 12.0999 23.6141C13.1666 28.0536 14.7833 32.8269 16.95 37.9339ZM71.7499 92.2088C75.7833 94.0446 80.075 95.5299 84.625 96.6648C89.175 97.7998 93.6334 98.4841 98.0001 98.7177V83.5968L83.0001 80.5427L71.7499 92.2088Z" fill="white"/>
</svg>
