<?xml version="1.0" standalone="no"?>
<!DOCTYPE svg PUBLIC "-//W3C//DTD SVG 20010904//EN"
 "http://www.w3.org/TR/2001/REC-SVG-20010904/DTD/svg10.dtd">
<svg version="1.0" xmlns="http://www.w3.org/2000/svg"
 width="700.000000pt" height="700.000000pt" viewBox="0 0 700.000000 700.000000"
 preserveAspectRatio="xMidYMid meet">
<metadata>
Created by potrace 1.14, written by Peter Selinger 2001-2017
</metadata>
<g transform="translate(0.000000,700.000000) scale(0.100000,-0.100000)"
fill="#000000" stroke="none">
<path d="M1095 4323 c-50 -11 -156 -49 -221 -80 -39 -18 -76 -33 -83 -33 -18
0 -83 -48 -105 -78 -26 -34 -10 -42 90 -42 l82 0 15 38 c21 51 53 82 85 82 26
0 26 0 5 -15 -50 -35 -95 -149 -124 -315 -14 -85 -17 -143 -14 -300 3 -107 7
-211 9 -230 3 -19 8 -55 11 -80 12 -93 73 -250 97 -250 4 0 12 -9 19 -21 10
-19 9 -20 -13 -14 -34 11 -54 32 -78 82 -22 47 -56 179 -65 253 -3 25 -8 53
-11 63 -10 31 -12 299 -3 372 4 39 11 91 14 118 3 26 6 53 8 60 3 16 -159 23
-178 7 -40 -33 -54 -425 -22 -615 24 -145 28 -183 18 -190 -5 -3 -16 16 -24
42 -32 101 -38 167 -39 456 l0 237 -79 0 -79 0 -1 -27 c-1 -16 -3 -39 -5 -53
-6 -36 -5 -296 0 -360 10 -105 19 -154 37 -208 24 -69 33 -80 78 -92 20 -5 54
-26 76 -46 121 -110 258 -157 435 -149 323 14 581 221 696 558 21 62 28 93 49
217 12 69 12 134 0 187 -7 29 -11 53 -9 53 7 0 -48 133 -70 168 -60 94 -168
166 -293 195 -57 13 -263 20 -308 10z m173 -312 c41 -22 64 -85 69 -193 l6
-98 -149 -1 c-152 -1 -181 -3 -192 -14 -13 -13 25 -25 83 -25 33 -1 92 -1 130
-2 76 0 122 -11 95 -22 -19 -8 -71 -13 -134 -15 -64 -1 -51 -14 17 -17 28 -1
65 -2 82 -3 19 -1 26 -4 19 -11 -5 -5 -77 -11 -159 -12 l-150 -3 1 -32 c3 -87
-3 -83 159 -89 66 -3 123 -8 127 -12 16 -15 -87 -192 -111 -192 -5 0 -8 10 -6
23 10 78 18 123 22 130 5 8 -12 10 -82 8 -27 -1 -51 -5 -53 -10 -1 -4 -9 -17
-17 -27 -14 -18 -15 -18 -34 6 -40 51 -45 303 -8 379 17 35 30 35 49 1 16 -28
21 -30 72 -30 71 0 74 9 51 132 -3 11 -7 46 -11 79 -6 55 -5 59 17 67 25 10
71 2 107 -17z"/>
<path d="M1105 3630 c3 -5 8 -10 11 -10 2 0 4 5 4 10 0 6 -5 10 -11 10 -5 0
-7 -4 -4 -10z"/>
<path d="M4028 4220 c-67 -49 -178 -129 -245 -177 -68 -48 -123 -90 -123 -93
0 -3 16 -6 35 -7 19 0 60 -4 90 -8 l56 -7 -4 -31 c-7 -48 -44 -199 -78 -322
-21 -75 -40 -122 -61 -148 -16 -21 -28 -40 -25 -43 4 -5 299 208 328 237 27
27 34 45 70 187 l33 132 146 0 147 0 22 81 c12 45 20 83 17 86 -3 3 -94 7
-203 9 -108 2 -201 8 -205 12 -11 11 30 75 86 132 27 27 46 50 43 50 -3 0 -61
-40 -129 -90z"/>
<path d="M6066 4183 c-3 -3 7 -27 22 -54 24 -43 31 -49 62 -50 78 -3 131 -2
136 4 8 8 -44 75 -69 89 -20 10 -142 19 -151 11z"/>
<path d="M5909 4138 c-17 -24 -36 -54 -41 -68 -11 -27 -47 -152 -54 -185 -29
-145 -27 -155 34 -149 62 6 78 12 90 39 14 30 23 31 39 6 18 -28 26 -95 26
-206 0 -155 -4 -183 -30 -207 l-22 -21 -10 27 c-6 14 -16 27 -23 27 -64 6 -86
5 -105 -2 -19 -7 -21 -14 -17 -48 7 -62 62 -248 90 -307 14 -29 37 -63 51 -74
25 -20 26 -20 52 0 39 27 77 86 100 152 32 93 43 188 45 398 4 360 -28 534
-117 628 -43 44 -70 42 -108 -10z"/>
<path d="M3580 4057 c-18 -32 -55 -89 -83 -126 -69 -90 -296 -361 -303 -361
-6 0 0 55 9 97 10 39 21 118 21 148 1 27 -2 30 -29 28 -17 -1 -58 -2 -92 -4
-35 -1 -63 -5 -64 -8 -3 -27 -11 -75 -33 -196 -14 -77 -28 -157 -32 -179 -3
-21 -8 -48 -10 -60 -2 -11 -6 -34 -9 -51 -3 -16 -7 -41 -10 -55 -3 -14 -7 -41
-10 -60 -3 -19 -8 -43 -11 -52 -5 -16 4 -18 97 -18 56 0 100 3 97 6 -9 8 20
120 41 162 21 40 67 89 77 80 3 -3 20 -59 38 -124 l33 -119 107 -1 c58 -1 108
2 110 5 2 3 -21 83 -50 176 -30 94 -57 183 -60 199 -2 16 -7 33 -9 37 -6 9 51
84 130 174 33 37 62 71 63 76 2 5 -14 10 -35 11 -21 0 -42 2 -48 3 -5 2 -21 3
-34 4 -23 1 -22 3 15 29 127 91 253 185 283 210 l34 28 -100 0 -101 0 -32 -59z"/>
<path d="M493 4050 c-12 -5 -27 -19 -33 -31 -16 -30 0 -39 73 -39 51 0 59 3
69 24 17 40 4 56 -44 55 -24 0 -53 -4 -65 -9z"/>
<path d="M6369 4031 c-14 -5 -14 -10 -2 -38 7 -18 16 -34 21 -34 38 -7 104 -5
117 5 13 10 12 14 -8 39 -17 22 -32 28 -68 31 -25 1 -52 0 -60 -3z"/>
<path d="M649 3999 c-22 -13 10 -20 80 -18 38 1 76 6 83 10 10 7 10 9 -2 10
-46 5 -152 4 -161 -2z"/>
<path d="M6155 3970 c-6 -10 1 -11 90 -14 57 -2 77 2 69 15 -7 12 -151 11
-159 -1z"/>
<path d="M310 3920 c-26 -26 -25 -37 3 -42 42 -8 72 6 75 35 3 24 0 27 -27 27
-18 0 -40 -9 -51 -20z"/>
<path d="M6161 3931 c-7 -5 -11 -13 -8 -18 21 -34 31 -450 14 -599 -10 -95
-48 -228 -84 -302 l-30 -59 76 3 c75 3 77 4 113 44 58 64 95 181 114 359 14
127 7 432 -12 544 l-7 37 -81 0 c-44 0 -87 -4 -95 -9z"/>
<path d="M6578 3914 c-8 -8 2 -37 16 -46 13 -9 70 -10 79 -2 3 3 1 16 -4 28
-8 16 -20 23 -48 24 -20 2 -40 0 -43 -4z"/>
<path d="M488 3903 c12 -2 30 -2 40 0 9 3 -1 5 -23 4 -22 0 -30 -2 -17 -4z"/>
<path d="M6458 3873 c6 -2 18 -2 25 0 6 3 1 5 -13 5 -14 0 -19 -2 -12 -5z"/>
<path d="M1881 3840 c-8 -5 -24 -83 -36 -170 -4 -24 -8 -47 -10 -50 -2 -3 -6
-26 -10 -50 -3 -25 -17 -106 -30 -180 -14 -74 -27 -150 -30 -168 -3 -19 -7
-39 -8 -45 -1 -9 28 -12 98 -12 l100 0 7 45 c4 25 9 54 11 65 9 39 18 120 15
130 -2 6 41 12 109 15 61 3 114 8 118 12 10 10 34 126 27 133 -3 3 -54 5 -113
5 l-108 0 6 33 c15 78 28 85 178 89 136 3 140 6 150 98 l6 55 -237 0 c-130 0
-239 -2 -243 -5z"/>
<path d="M2606 3843 c-1 -1 -36 -3 -79 -4 -60 -1 -80 -6 -86 -18 -10 -19 -10
-19 -66 -343 -19 -113 -39 -228 -44 -255 -5 -26 -7 -50 -4 -53 2 -3 116 -7
252 -8 l247 -4 14 74 c7 40 14 78 16 83 3 6 -47 10 -138 10 -154 0 -170 5
-162 53 9 48 22 53 145 55 l114 2 13 63 c9 39 11 67 5 73 -5 5 -58 11 -118 13
-69 3 -111 9 -115 17 -8 13 4 67 18 81 5 5 74 9 155 10 l146 2 6 26 c4 14 9
39 11 55 3 17 6 39 9 50 4 19 -1 20 -166 20 -94 0 -172 -1 -173 -2z"/>
<path d="M4231 3820 c-5 -14 -13 -45 -17 -70 -3 -25 -8 -52 -9 -60 -2 -8 -10
-53 -19 -100 -21 -119 -25 -136 -37 -210 -5 -36 -14 -85 -19 -110 -18 -83 -19
-98 -7 -103 23 -8 172 -7 185 1 11 8 49 187 97 462 19 112 35 206 35 210 0 3
-45 5 -100 5 -97 0 -100 -1 -109 -25z"/>
<path d="M4513 3792 c3 -31 11 -91 17 -132 5 -41 13 -93 16 -115 3 -22 7 -47
9 -55 2 -8 7 -35 10 -60 3 -25 8 -61 10 -80 3 -19 8 -53 10 -75 13 -111 18
-115 144 -115 l90 0 37 78 c20 42 92 191 161 331 68 139 125 258 126 264 1 7
-24 10 -70 10 -98 -1 -103 -2 -103 -12 0 -4 -34 -79 -75 -165 -41 -86 -82
-173 -90 -193 -10 -23 -19 -33 -25 -27 -5 5 -18 81 -30 169 -11 88 -22 171
-25 185 -2 14 -4 28 -4 31 -1 4 -39 7 -85 8 -46 1 -94 4 -106 6 -22 4 -22 2
-17 -53z"/>
<path d="M5293 3842 c-68 -3 -79 -11 -87 -64 -3 -21 -10 -57 -16 -82 -8 -36
-36 -198 -56 -331 -3 -16 -12 -65 -20 -109 -7 -43 -14 -82 -14 -87 0 -5 114
-9 258 -9 200 0 259 3 260 13 0 6 4 42 8 80 7 66 6 67 -17 68 -13 1 -81 2
-151 2 -71 1 -128 3 -128 5 0 30 26 93 40 97 10 3 65 7 123 8 l104 1 15 69
c13 60 13 69 1 74 -8 3 -64 6 -124 7 l-109 1 4 25 c2 14 5 37 5 51 1 25 3 26
74 28 155 5 239 10 242 13 2 2 6 21 9 43 4 23 8 50 10 61 2 12 1 25 -2 30 -7
9 -291 13 -429 6z"/>
<path d="M6424 3842 c-21 -3 -21 -7 -23 -218 -1 -231 -6 -317 -22 -404 -20
-100 -22 -95 49 -96 50 -1 65 3 72 16 18 34 50 166 57 235 12 119 7 464 -6
466 -17 3 -109 4 -127 1z"/>
<path d="M290 3798 c-38 -14 -5 -28 45 -18 39 7 37 10 -7 24 -7 2 -24 -1 -38
-6z"/>
<path d="M6638 3763 c6 -2 18 -2 25 0 6 3 1 5 -13 5 -14 0 -19 -2 -12 -5z"/>
<path d="M260 3751 c-12 -8 -15 -34 -15 -123 0 -131 7 -191 31 -279 20 -76 27
-85 61 -92 45 -8 51 -1 42 49 -7 37 -13 148 -23 414 -1 33 -3 34 -41 37 -22 2
-47 -1 -55 -6z"/>
<path d="M6634 3731 c-19 -5 -21 -14 -23 -96 -3 -140 -11 -275 -21 -334 -11
-61 -8 -71 24 -71 38 0 54 30 81 146 20 90 24 129 21 227 -1 64 -6 120 -9 123
-9 9 -48 12 -73 5z"/>
<path d="M133 3712 c-22 -14 2 -34 35 -29 43 7 58 17 41 28 -17 11 -60 11 -76
1z"/>
<path d="M5745 3679 c-4 -6 -4 -13 0 -17 9 -9 155 -7 191 3 l29 8 -30 7 c-48
12 -183 11 -190 -1z"/>
<path d="M6760 3676 c0 -19 39 -27 63 -14 16 8 17 12 6 19 -22 14 -69 11 -69
-5z"/>
<path d="M4099 3637 c-20 -18 -116 -90 -213 -161 -98 -72 -179 -133 -181 -136
-2 -4 -7 -20 -10 -36 -3 -16 -11 -52 -19 -81 -11 -41 -11 -53 -1 -57 29 -11
215 -4 228 9 7 7 26 64 41 126 35 141 59 190 138 285 33 41 59 76 57 78 -2 2
-20 -10 -40 -27z"/>
<path d="M115 3591 c-11 -10 -4 -89 8 -99 17 -15 70 -21 83 -10 8 6 9 21 4 43
-4 19 -6 35 -4 35 3 0 0 9 -6 20 -8 16 -20 20 -46 18 -19 -1 -37 -4 -39 -7z"/>
<path d="M6793 3582 c-13 -2 -23 -6 -24 -10 0 -4 -2 -16 -4 -26 -2 -11 -5 -36
-7 -55 -3 -34 -1 -36 31 -39 37 -4 46 4 61 57 15 53 -8 81 -57 73z"/>
<path d="M5735 3568 c-12 -33 -25 -111 -20 -116 6 -7 212 -3 235 3 11 4 15 20
15 65 l1 60 -113 0 c-82 0 -115 -3 -118 -12z"/>
<path d="M2349 3058 c-17 -18 -38 -41 -47 -51 -19 -21 -22 -39 -9 -48 12 -8
12 -49 2 -116 l-8 -53 32 0 c35 0 43 13 56 90 7 45 31 84 45 75 4 -3 13 2 20
11 10 11 11 17 1 27 -7 7 -16 13 -21 13 -6 1 -13 2 -17 3 -5 0 7 10 25 21 45
28 40 54 -11 58 -31 3 -42 -2 -68 -30z"/>
<path d="M2560 3083 c-8 -3 -34 -25 -58 -49 -41 -43 -43 -46 -31 -77 8 -24 9
-49 1 -93 -11 -68 -10 -74 22 -74 31 0 43 16 56 75 17 78 19 83 45 89 18 5 25
13 25 32 0 21 -4 24 -20 19 -29 -9 -25 13 4 27 26 11 40 34 30 49 -6 10 -49
11 -74 2z"/>
<path d="M3325 3083 c-21 -4 -51 -41 -41 -51 11 -10 71 -9 78 2 21 32 3 55
-37 49z"/>
<path d="M2081 3061 c-8 -16 -15 -45 -25 -105 -3 -16 -10 -54 -16 -83 -17 -81
-16 -82 97 -80 l98 2 0 30 c0 26 -4 30 -30 33 -98 9 -101 31 -8 48 60 11 56
58 -5 62 -28 2 -42 8 -42 17 0 16 23 23 85 27 37 3 40 5 40 33 l0 30 -93 1
c-76 1 -94 -1 -101 -15z"/>
<path d="M4007 3070 c-21 -4 -43 -12 -49 -18 -16 -16 -2 -42 23 -42 20 0 21
-3 15 -52 -4 -29 -9 -79 -12 -110 l-6 -58 30 0 c37 0 38 2 47 60 18 124 33
160 66 160 12 0 20 8 21 20 0 11 1 26 2 33 1 14 -75 18 -137 7z"/>
<path d="M4587 3074 c-9 -10 -9 -44 1 -45 4 0 15 -2 24 -4 17 -3 56 31 46 41
-10 9 -64 15 -71 8z"/>
<path d="M4965 3064 c-20 -20 -3 -45 28 -40 30 4 47 34 27 46 -22 14 -36 12
-55 -6z"/>
<path d="M3163 3059 c-13 -5 -23 -12 -23 -17 0 -5 -11 -22 -24 -37 -19 -21
-22 -33 -15 -46 5 -10 9 -49 9 -88 0 -76 6 -84 61 -77 48 6 67 35 33 54 -8 5
-17 17 -18 28 -4 23 13 74 24 74 5 0 16 7 24 16 15 14 14 18 -4 41 -11 14 -17
29 -15 34 9 14 -29 27 -52 18z"/>
<path d="M5480 3035 c-14 -8 -50 -22 -80 -31 -66 -19 -90 -38 -90 -72 0 -30
-16 -85 -36 -125 -28 -58 -9 -79 73 -82 101 -4 154 30 139 88 -5 20 -15 26
-56 33 -61 11 -65 25 -11 39 54 14 81 41 81 82 0 21 6 36 15 39 18 7 20 44 3
44 -7 -1 -24 -7 -38 -15z m-62 -77 c15 -15 -3 -49 -23 -42 -22 9 -18 54 5 54
3 0 11 -5 18 -12z m2 -178 c0 -14 -40 -28 -62 -22 -9 2 -23 10 -29 18 -10 12
-3 14 40 14 28 0 51 -5 51 -10z"/>
<path d="M2713 3003 c-32 -6 -79 -57 -93 -98 -31 -93 98 -152 184 -84 34 27
24 41 -22 33 -20 -4 -45 -8 -54 -10 -17 -3 -35 13 -25 22 3 3 31 8 63 10 61 5
74 14 74 51 0 50 -65 89 -127 76z m57 -74 c0 -12 -47 -11 -55 0 -9 15 28 31
42 19 7 -6 13 -14 13 -19z"/>
<path d="M2943 2989 c-100 -49 -98 -187 3 -194 63 -5 128 35 108 66 -7 13 -48
11 -61 -2 -7 -7 -19 -9 -28 -5 -13 5 -15 15 -11 43 3 21 5 39 6 39 0 1 8 5 17
8 11 5 23 0 33 -13 11 -14 20 -17 38 -10 28 11 29 46 0 70 -27 24 -53 24 -105
-2z"/>
<path d="M3393 2994 c-7 -20 24 -185 38 -199 20 -20 63 19 106 100 66 123 55
157 -20 60 l-42 -55 -3 37 c-2 21 -11 46 -19 56 -20 21 -52 22 -60 1z"/>
<path d="M3675 3000 c-27 -11 -72 -59 -83 -91 -42 -109 108 -163 192 -70 19
21 19 21 -8 21 -16 0 -25 4 -21 10 3 6 14 10 24 10 45 0 24 96 -25 119 -29 13
-51 13 -79 1z m55 -64 c0 -16 -19 -25 -37 -18 -23 8 -14 32 12 32 15 0 25 -6
25 -14z m-16 -83 c-21 -16 -40 -17 -49 -3 -8 12 34 29 54 22 11 -4 10 -8 -5
-19z"/>
<path d="M4252 2994 c-15 -10 -27 -13 -35 -6 -12 9 -44 8 -54 -1 -7 -8 -22
-76 -29 -135 -4 -43 -3 -53 12 -59 28 -11 47 11 63 72 12 44 22 63 41 72 23
12 38 34 39 61 1 16 -10 15 -37 -4z"/>
<path d="M4365 2994 c-60 -33 -55 -54 10 -46 50 5 64 -13 18 -24 -94 -23 -139
-79 -93 -116 26 -21 59 -23 85 -4 16 11 21 11 33 0 38 -39 66 -6 80 94 7 53 6
67 -7 83 -22 28 -87 34 -126 13z m57 -117 c-1 -4 -5 -14 -8 -22 -7 -18 -40
-20 -50 -3 -9 14 21 37 44 34 9 -2 16 -6 14 -9z"/>
<path d="M4807 3004 c-3 -4 -26 -9 -49 -11 -54 -6 -64 -15 -74 -61 -4 -20 -8
-41 -10 -47 -1 -5 -5 -27 -9 -48 -7 -42 7 -54 49 -43 19 5 26 15 31 48 12 78
25 108 47 108 16 0 19 -5 15 -22 -3 -13 -9 -49 -12 -80 l-7 -58 31 0 c40 0 50
24 53 126 2 58 0 77 -12 84 -17 11 -44 13 -53 4z"/>
<path d="M5176 3003 c-4 -5 -29 -8 -54 -8 l-47 0 -21 -103 -22 -103 36 3 c39
3 43 10 72 116 6 26 16 42 23 39 12 -4 14 -44 6 -117 -4 -32 -2 -35 24 -38 23
-3 30 2 41 30 8 18 17 59 21 91 6 48 4 61 -10 77 -18 20 -55 27 -69 13z"/>
<path d="M3279 2991 c0 -3 -2 -13 -4 -21 -2 -8 -6 -33 -10 -55 -4 -22 -10 -59
-15 -82 -7 -42 -7 -43 19 -43 47 0 62 22 75 113 4 27 9 57 11 68 2 10 1 20 -3
20 -23 5 -72 4 -73 0z"/>
<path d="M4581 2991 c-16 -10 -31 -58 -37 -126 -6 -56 -4 -66 11 -71 31 -12
50 11 68 87 21 91 19 114 -10 115 -12 1 -26 -2 -32 -5z"/>
<path d="M4955 2985 c-15 -12 -49 -170 -40 -185 9 -15 51 -12 64 4 11 13 13
23 27 138 6 55 6 57 -16 55 -12 -1 -28 -6 -35 -12z"/>
</g>
</svg>
