<svg width="120" height="121" viewBox="0 0 120 121" fill="none" xmlns="http://www.w3.org/2000/svg">
<path d="M75.0088 77.7121C78.0362 77.7121 80.6249 76.6327 82.7749 74.4738C84.9249 72.3149 85.9999 69.7197 85.9999 66.6881C85.9999 63.6566 84.9228 61.0643 82.7687 58.9113C80.6145 56.7583 78.0249 55.6819 74.9999 55.6819C73.5237 55.6819 72.1214 55.9572 70.7928 56.508C69.4642 57.0588 68.2833 57.8515 67.2499 58.8862L49.8998 50.1742C49.9665 49.9072 49.9999 49.6568 49.9999 49.4232V47.9211C49.9999 47.6875 49.9665 47.4372 49.8998 47.1701L67.2499 38.4581C68.2833 39.4928 69.4642 40.2856 70.7928 40.8363C72.1214 41.3871 73.5237 41.6625 74.9999 41.6625C78.0249 41.6625 80.6145 40.583 82.7687 38.4241C84.9228 36.2653 85.9999 33.67 85.9999 30.6385C85.9999 27.6069 84.9219 25.0146 82.766 22.8617C80.6101 20.7087 78.0185 19.6322 74.9911 19.6322C71.9637 19.6322 69.375 20.7108 67.225 22.8678C65.075 25.025 64 27.6182 64 30.6473V31.3984C64 31.632 64.0333 31.8823 64.1 32.1494L46.75 40.8614C45.7166 39.8267 44.5356 39.0339 43.2071 38.4832C41.8785 37.9324 40.4761 37.657 38.9999 37.657C35.9749 37.657 33.3853 38.7365 31.2311 40.8954C29.077 43.0542 28 45.6495 28 48.681C28 51.7126 29.077 54.3049 31.2311 56.4578C33.3853 58.6108 35.9749 59.6873 38.9999 59.6873C40.4761 59.6873 41.8785 59.4119 43.2071 58.8611C44.5356 58.3104 45.7166 57.5176 46.75 56.4829L64.1 65.1949C64.0333 65.462 64 65.7123 64 65.946V66.697C64 69.7262 65.0779 72.3193 67.2338 74.4765C69.3897 76.6336 71.9814 77.7121 75.0088 77.7121ZM-6.10352e-05 120.771V10.6197C-6.10352e-05 7.91593 0.991589 5.57105 2.97489 3.58501C4.95819 1.59898 7.29984 0.605957 9.99984 0.605957H110C112.7 0.605957 115.042 1.59898 117.025 3.58501C119.008 5.57105 120 7.91593 120 10.6197V86.7247C120 89.4284 119.008 91.7733 117.025 93.7593C115.042 95.7453 112.7 96.7384 110 96.7384H23.9999L-6.10352e-05 120.771ZM19.6999 86.7247H110V10.6197H9.99984V96.9889L19.6999 86.7247Z" fill="white"/>
</svg>
