<svg width="39" height="33" viewBox="0 0 39 33" fill="none" xmlns="http://www.w3.org/2000/svg">
<mask id="path-1-inside-1_144_6" fill="white">
<path fill-rule="evenodd" clip-rule="evenodd" d="M38.3403 16.6488C38.2654 25.0578 31.2148 31.8123 22.5924 31.7355C19.8231 31.7108 17.2284 30.9845 14.9844 29.7312C8.81191 31.1988 4.55458 28.4785 1.3345 23.0462L1.44676 23.0445C3.74349 23.0115 6.19916 22.9762 7.45483 19.6781C7.22294 18.6121 7.10552 17.5053 7.11563 16.3707C7.19053 7.96174 14.2411 1.20721 22.8636 1.28402C31.4861 1.36082 38.4152 8.23987 38.3403 16.6488Z"/>
</mask>
<path d="M14.9844 29.7312L15.9597 27.9851L15.2796 27.6052L14.5218 27.7854L14.9844 29.7312ZM1.3345 23.0462L1.30549 21.0464L-2.14617 21.0964L-0.385962 24.066L1.3345 23.0462ZM1.44676 23.0445L1.418 21.0447L1.41775 21.0447L1.44676 23.0445ZM7.45483 19.6781L9.32395 20.3898L9.53553 19.834L9.40913 19.253L7.45483 19.6781ZM22.5745 33.7354C32.254 33.8216 40.2551 26.2271 40.3402 16.6666L36.3404 16.631C36.2758 23.8884 30.1757 29.803 22.6102 29.7356L22.5745 33.7354ZM14.0092 31.4773C16.5403 32.8909 19.4634 33.7077 22.5745 33.7354L22.6102 29.7356C20.1828 29.7139 17.9166 29.078 15.9597 27.9851L14.0092 31.4773ZM-0.385962 24.066C1.33573 26.9705 3.44373 29.3399 6.12232 30.7468C8.84732 32.178 11.9596 32.5061 15.4471 31.6769L14.5218 27.7854C11.8368 28.4238 9.7341 28.1256 7.98227 27.2055C6.18406 26.2611 4.55335 24.5542 3.05496 22.0263L-0.385962 24.066ZM1.41775 21.0447L1.30549 21.0464L1.36351 25.0459L1.47577 25.0443L1.41775 21.0447ZM5.58572 18.9665C5.13714 20.1447 4.58761 20.5321 4.09535 20.73C3.44298 20.9922 2.64266 21.0271 1.418 21.0447L1.47551 25.0443C2.54758 25.0289 4.12347 25.0297 5.58704 24.4414C7.21071 23.7889 8.51686 22.5096 9.32395 20.3898L5.58572 18.9665ZM5.1157 16.3529C5.10426 17.6376 5.23724 18.8929 5.50054 20.1033L9.40913 19.253C9.20863 18.3314 9.10678 17.3731 9.11555 16.3885L5.1157 16.3529ZM22.8814 -0.715905C13.202 -0.802123 5.20086 6.79243 5.1157 16.3529L9.11555 16.3885C9.18019 9.13106 15.2803 3.21655 22.8458 3.28394L22.8814 -0.715905ZM40.3402 16.6666C40.4254 7.10618 32.5608 -0.629687 22.8814 -0.715905L22.8458 3.28394C30.4113 3.35132 36.405 9.37356 36.3404 16.631L40.3402 16.6666Z" fill="white" mask="url(#path-1-inside-1_144_6)"/>
<circle cx="18.4699" cy="12.8713" r="1.84615" fill="white"/>
<circle cx="16.1978" cy="29.0608" r="3.55029" fill="white"/>
<circle cx="16.3398" cy="29.2026" r="1.42012" fill="white"/>
<circle cx="28.9788" cy="29.0608" r="3.55029" fill="white"/>
<circle cx="26.9904" cy="12.8713" r="1.84615" fill="white"/>
<circle cx="29.1208" cy="29.2026" r="1.42012" fill="white"/>
<path d="M29.1206 16.8481C29.1206 18.317 28.4474 19.7257 27.2489 20.7644C26.0505 21.8031 24.425 22.3866 22.7301 22.3866C21.0353 22.3866 19.4098 21.8031 18.2113 20.7644C17.0129 19.7257 16.3396 18.317 16.3396 16.8481C16.9913 16.6177 17.3566 16.5117 18.0082 16.8481C18.0082 17.9335 18.5057 18.9744 19.3912 19.7418C20.2768 20.5093 21.4778 20.9404 22.7301 20.9404C23.9824 20.9404 25.1835 20.5093 26.069 19.7418C26.9545 18.9744 27.452 17.9335 27.452 16.8481C28.074 16.5271 28.4559 16.5009 29.1206 16.8481Z" fill="white"/>
</svg>
