<svg width="33" height="33" viewBox="0 0 33 33" fill="none" xmlns="http://www.w3.org/2000/svg">
<path d="M24.0309 20.0939C23.7112 19.934 21.6333 18.975 21.3136 18.8151C20.9939 18.6553 20.6742 18.6553 20.3545 18.975C20.0348 19.2947 19.3954 20.2537 19.0757 20.5734C18.9159 20.8931 18.5962 20.8931 18.2765 20.7333C17.1576 20.2537 16.0387 19.6143 15.0796 18.8151C14.2804 18.0159 13.4812 17.0568 12.8418 16.0978C12.682 15.7781 12.8418 15.4584 13.0016 15.2985C13.1615 15.1387 13.3213 14.819 13.641 14.6592C13.8009 14.4993 13.9607 14.1796 13.9607 14.0198C14.1206 13.8599 14.1206 13.5403 13.9607 13.3804C13.8009 13.2206 13.0016 11.3024 12.682 10.5032C12.5221 9.38429 12.2024 9.38429 11.8827 9.38429C11.7229 9.38429 11.4032 9.38429 11.0835 9.38429C10.7638 9.38429 10.2843 9.70398 10.1244 9.86382C9.16537 10.8229 8.68584 11.9418 8.68584 13.2206C8.84568 14.6592 9.32522 16.0978 10.2843 17.3765C12.0426 19.934 14.2804 22.012 16.9978 23.2908C17.797 23.6105 18.4364 23.9302 19.2356 24.09C20.0348 24.4097 20.834 24.4097 21.7931 24.2498C22.912 24.09 23.8711 23.2908 24.5105 22.3317C24.8302 21.6923 24.8302 21.0529 24.6703 20.4136C24.6703 20.4136 24.3506 20.2537 24.0309 20.0939ZM28.0271 5.54802C21.7931 -0.685927 11.7229 -0.685927 5.48895 5.54802C0.373914 10.663 -0.585154 18.4954 2.93143 24.7294L0.693604 32.8815L9.16537 30.6436C11.563 31.9224 14.1206 32.5618 16.6781 32.5618C25.4695 32.5618 32.5027 25.5286 32.5027 16.7371C32.6625 12.5812 30.9043 8.58507 28.0271 5.54802ZM23.7112 27.9263C21.6333 29.205 19.2356 30.0043 16.6781 30.0043C14.2804 30.0043 12.0426 29.3649 9.9646 28.246L9.48506 27.9263L4.52988 29.205L5.80863 24.4097L5.48895 23.9302C1.65267 17.5364 3.57081 9.54413 9.80475 5.54802C16.0387 1.5519 24.0309 3.62988 27.8672 9.70398C31.7035 15.9379 29.9452 24.09 23.7112 27.9263Z" fill="white"/>
</svg>
